<svg xmlns="http://www.w3.org/2000/svg" xml:space="preserve" width="800" height="800" viewBox="0 0 315.327 315.327">
  <path d="m269.844 308.128-83.978-84.014c-7.199-7.205-20.193-8.82-29.744-5.271-41.307 15.342-92.768 8.196-122.417-24.428-44.468-44.475-44.468-116.583 0-161.063 44.48-44.469 116.613-44.469 161.097 0 33.393 33.401 41.638 82.371 24.836 123.536-3.849 9.431-2.486 22.275 4.714 29.486l83.61 83.635c14.01 14.004 4.144 25.365-4.653 34.126-8.755 8.766-19.42 17.99-33.465 3.993zM166.682 60.247c-29.16-29.166-76.474-29.166-105.627 0-29.168 29.189-29.168 76.468 0 105.651 29.153 29.159 76.468 29.159 105.627 0 29.182-29.183 29.182-76.461 0-105.651z"/>
</svg>
